# xmcd
#
# Track frame offsets: 
#        150
#        17941
#        35938
#
# Disc length: 626 seconds
#
# Revision: 0
# Processed by: cddbd v1.5.2PL0 Copyright (c) Steve Scherf et al.
# Submitted via: ExactAudioCopy v0.99pb4
#
DISCID=24027003
DTITLE=My Lilly of the Valley - Summer First Kiss
DYEAR=2008
DGENRE=Indie Pop
TTITLE0=Summer First Kiss
TTITLE1=Precious Moments
TTITLE2=Some Sort of Goodbye (Acoustic Live Version)
EXTD=
EXTT0=
EXTT1=
EXTT2=
PLAYORDER=
